<svg xmlns="http://www.w3.org/2000/svg" width="1600" height="560" viewBox="0 0 1600 560" role="img" aria-label="Night city skyline under a starfield">
<defs>
<linearGradient id="sky" x1="0" y1="0" x2="0" y2="1">
<stop offset="0" stop-color="#080a16"/><stop offset="0.55" stop-color="#120a12"/><stop offset="1" stop-color="#1a0d10"/>
</linearGradient>
<radialGradient id="moon" cx="0.82" cy="0.2" r="0.5">
<stop offset="0" stop-color="rgba(232,214,168,0.5)"/><stop offset="0.25" stop-color="rgba(232,214,168,0.12)"/><stop offset="0.6" stop-color="rgba(232,214,168,0)"/>
</radialGradient>
<radialGradient id="oxglow" cx="0.18" cy="1.05" r="0.7">
<stop offset="0" stop-color="rgba(162,44,41,0.42)"/><stop offset="0.6" stop-color="rgba(162,44,41,0)"/>
</radialGradient>
</defs>
<rect width="1600" height="560" fill="url(#sky)"/>
<rect width="1600" height="560" fill="url(#moon)"/>
<circle cx="634.0" cy="451.9" r="1.32" fill="#f0e8d0" opacity="0.29"/>
<circle cx="893.7" cy="71.7" r="0.46" fill="#f0e8d0" opacity="0.83"/>
<circle cx="1578.8" cy="240.0" r="1.23" fill="#f0e8d0" opacity="0.34"/>
<circle cx="144.4" cy="132.7" r="0.49" fill="#f0e8d0" opacity="0.79"/>
<circle cx="256.4" cy="214.7" r="0.47" fill="#f0e8d0" opacity="0.39"/>
<circle cx="546.1" cy="234.5" r="0.78" fill="#f0e8d0" opacity="0.64"/>
<circle cx="965.9" cy="74.0" r="1.13" fill="#f0e8d0" opacity="0.32"/>
<circle cx="1049.2" cy="373.4" r="1.62" fill="#f0e8d0" opacity="0.86"/>
<circle cx="943.7" cy="434.1" r="1.31" fill="#f0e8d0" opacity="0.71"/>
<circle cx="88.9" cy="19.9" r="0.73" fill="#f0e8d0" opacity="0.88"/>
<circle cx="1440.7" cy="378.3" r="1.03" fill="#f0e8d0" opacity="0.39"/>
<circle cx="597.7" cy="432.1" r="0.71" fill="#f0e8d0" opacity="0.86"/>
<circle cx="979.0" cy="248.3" r="0.74" fill="#f0e8d0" opacity="0.44"/>
<circle cx="399.6" cy="374.6" r="0.45" fill="#f0e8d0" opacity="0.51"/>
<circle cx="1045.0" cy="125.7" r="0.63" fill="#f0e8d0" opacity="0.95"/>
<circle cx="492.4" cy="453.8" r="1.14" fill="#f0e8d0" opacity="0.75"/>
<circle cx="619.4" cy="251.7" r="0.95" fill="#f0e8d0" opacity="0.82"/>
<circle cx="179.6" cy="184.0" r="1.26" fill="#f0e8d0" opacity="0.88"/>
<circle cx="121.6" cy="436.7" r="0.53" fill="#f0e8d0" opacity="0.47"/>
<circle cx="623.0" cy="91.0" r="1.53" fill="#f0e8d0" opacity="0.31"/>
<circle cx="584.1" cy="215.9" r="1.39" fill="#f0e8d0" opacity="0.28"/>
<circle cx="943.6" cy="400.5" r="0.4" fill="#f0e8d0" opacity="0.53"/>
<circle cx="1521.1" cy="48.8" r="0.79" fill="#f0e8d0" opacity="0.65"/>
<circle cx="1172.9" cy="253.9" r="0.66" fill="#f0e8d0" opacity="0.84"/>
<circle cx="1176.8" cy="61.6" r="0.89" fill="#f0e8d0" opacity="0.28"/>
<circle cx="1514.4" cy="369.9" r="1.21" fill="#f0e8d0" opacity="0.6"/>
<circle cx="80.7" cy="144.5" r="0.71" fill="#f0e8d0" opacity="0.66"/>
<circle cx="1193.8" cy="296.0" r="1.25" fill="#f0e8d0" opacity="0.62"/>
<circle cx="648.7" cy="274.8" r="1.11" fill="#f0e8d0" opacity="0.81"/>
<circle cx="1394.9" cy="386.3" r="1.03" fill="#f0e8d0" opacity="0.73"/>
<circle cx="849.8" cy="261.5" r="0.98" fill="#f0e8d0" opacity="0.45"/>
<circle cx="547.7" cy="390.1" r="1.25" fill="#f0e8d0" opacity="0.76"/>
<circle cx="881.5" cy="381.5" r="1.63" fill="#f0e8d0" opacity="0.92"/>
<circle cx="1029.5" cy="270.1" r="0.88" fill="#f0e8d0" opacity="0.31"/>
<circle cx="113.7" cy="349.9" r="1.6" fill="#f0e8d0" opacity="0.32"/>
<circle cx="265.1" cy="98.9" r="1.56" fill="#f0e8d0" opacity="0.44"/>
<circle cx="1208.4" cy="34.0" r="1.7" fill="#f0e8d0" opacity="0.55"/>
<circle cx="1121.4" cy="326.8" r="0.82" fill="#f0e8d0" opacity="0.57"/>
<circle cx="1367.5" cy="153.3" r="1.27" fill="#f0e8d0" opacity="0.29"/>
<circle cx="151.5" cy="231.1" r="1.55" fill="#f0e8d0" opacity="0.4"/>
<circle cx="259.0" cy="347.6" r="0.7" fill="#f0e8d0" opacity="0.74"/>
<circle cx="624.0" cy="83.1" r="1.1" fill="#f0e8d0" opacity="0.47"/>
<circle cx="1215.1" cy="429.1" r="0.91" fill="#f0e8d0" opacity="0.64"/>
<circle cx="618.3" cy="162.4" r="1.68" fill="#f0e8d0" opacity="0.67"/>
<circle cx="876.6" cy="336.9" r="1.33" fill="#f0e8d0" opacity="0.44"/>
<circle cx="714.0" cy="402.6" r="1.53" fill="#f0e8d0" opacity="0.74"/>
<circle cx="0.6" cy="404.7" r="1.13" fill="#f0e8d0" opacity="0.9"/>
<circle cx="222.2" cy="290.3" r="1.52" fill="#f0e8d0" opacity="0.41"/>
<circle cx="647.5" cy="22.3" r="1.31" fill="#f0e8d0" opacity="0.26"/>
<circle cx="777.7" cy="221.4" r="0.64" fill="#f0e8d0" opacity="0.89"/>
<circle cx="1522.6" cy="115.1" r="1.2" fill="#f0e8d0" opacity="0.35"/>
<circle cx="121.7" cy="130.5" r="0.58" fill="#f0e8d0" opacity="0.51"/>
<circle cx="663.0" cy="41.1" r="1.2" fill="#f0e8d0" opacity="0.72"/>
<circle cx="931.4" cy="301.1" r="0.76" fill="#f0e8d0" opacity="0.61"/>
<circle cx="595.1" cy="448.2" r="1.18" fill="#f0e8d0" opacity="0.53"/>
<circle cx="438.3" cy="413.7" r="1.09" fill="#f0e8d0" opacity="0.28"/>
<circle cx="634.1" cy="294.6" r="1.39" fill="#f0e8d0" opacity="0.51"/>
<circle cx="929.6" cy="32.0" r="0.97" fill="#f0e8d0" opacity="0.29"/>
<circle cx="485.8" cy="287.5" r="0.55" fill="#f0e8d0" opacity="0.83"/>
<circle cx="967.0" cy="117.5" r="1.62" fill="#f0e8d0" opacity="0.32"/>
<circle cx="962.3" cy="138.7" r="0.72" fill="#f0e8d0" opacity="0.4"/>
<circle cx="1179.7" cy="293.7" r="0.58" fill="#f0e8d0" opacity="0.45"/>
<circle cx="1367.6" cy="146.2" r="0.95" fill="#f0e8d0" opacity="0.75"/>
<circle cx="741.2" cy="183.9" r="0.91" fill="#f0e8d0" opacity="0.25"/>
<circle cx="747.4" cy="449.0" r="1.16" fill="#f0e8d0" opacity="0.89"/>
<circle cx="1287.5" cy="152.1" r="1.17" fill="#f0e8d0" opacity="0.39"/>
<circle cx="109.9" cy="97.3" r="1.36" fill="#f0e8d0" opacity="0.8"/>
<circle cx="1371.9" cy="71.8" r="0.72" fill="#f0e8d0" opacity="0.49"/>
<circle cx="343.5" cy="116.8" r="1.43" fill="#f0e8d0" opacity="0.77"/>
<circle cx="1475.3" cy="12.0" r="0.97" fill="#f0e8d0" opacity="0.31"/>
<circle cx="1308.6" cy="84.1" r="0.65" fill="#f0e8d0" opacity="0.3"/>
<circle cx="1056.9" cy="389.1" r="1.17" fill="#f0e8d0" opacity="0.68"/>
<circle cx="412.8" cy="182.0" r="1.17" fill="#f0e8d0" opacity="0.78"/>
<circle cx="1054.7" cy="98.4" r="0.91" fill="#f0e8d0" opacity="0.46"/>
<circle cx="659.4" cy="355.7" r="0.94" fill="#f0e8d0" opacity="0.62"/>
<circle cx="949.7" cy="253.8" r="0.7" fill="#f0e8d0" opacity="0.86"/>
<circle cx="479.1" cy="174.0" r="0.57" fill="#f0e8d0" opacity="0.84"/>
<circle cx="1056.6" cy="75.9" r="1.25" fill="#f0e8d0" opacity="0.77"/>
<circle cx="553.9" cy="65.8" r="1.58" fill="#f0e8d0" opacity="0.88"/>
<circle cx="905.1" cy="404.0" r="1.1" fill="#f0e8d0" opacity="0.25"/>
<circle cx="1220.3" cy="295.2" r="1.39" fill="#f0e8d0" opacity="0.76"/>
<circle cx="346.0" cy="231.0" r="1.31" fill="#f0e8d0" opacity="0.86"/>
<circle cx="1508.9" cy="2.0" r="0.74" fill="#f0e8d0" opacity="0.48"/>
<circle cx="1357.8" cy="89.4" r="0.98" fill="#f0e8d0" opacity="0.3"/>
<circle cx="1556.6" cy="329.4" r="1.43" fill="#f0e8d0" opacity="0.9"/>
<circle cx="471.3" cy="291.9" r="1.64" fill="#f0e8d0" opacity="0.93"/>
<circle cx="1563.2" cy="110.8" r="1.46" fill="#f0e8d0" opacity="0.59"/>
<circle cx="1304.8" cy="164.7" r="1.64" fill="#f0e8d0" opacity="0.87"/>
<circle cx="464.1" cy="354.1" r="0.4" fill="#f0e8d0" opacity="0.57"/>
<circle cx="341.1" cy="26.4" r="1.42" fill="#f0e8d0" opacity="0.6"/>
<circle cx="969.8" cy="379.9" r="0.7" fill="#f0e8d0" opacity="0.39"/>
<circle cx="1539.4" cy="127.8" r="1.51" fill="#f0e8d0" opacity="0.5"/>
<circle cx="500.3" cy="178.1" r="1.29" fill="#f0e8d0" opacity="0.49"/>
<circle cx="64.2" cy="249.0" r="0.83" fill="#f0e8d0" opacity="0.43"/>
<circle cx="1449.2" cy="444.4" r="1.21" fill="#f0e8d0" opacity="0.79"/>
<circle cx="869.2" cy="280.4" r="1.29" fill="#f0e8d0" opacity="0.85"/>
<circle cx="1538.5" cy="334.3" r="1.69" fill="#f0e8d0" opacity="0.48"/>
<circle cx="1588.0" cy="260.1" r="1.06" fill="#f0e8d0" opacity="0.81"/>
<circle cx="1566.4" cy="251.6" r="1.62" fill="#f0e8d0" opacity="0.84"/>
<circle cx="1169.3" cy="140.1" r="0.94" fill="#f0e8d0" opacity="0.72"/>
<circle cx="516.1" cy="261.9" r="0.96" fill="#f0e8d0" opacity="0.41"/>
<circle cx="138.0" cy="287.8" r="0.68" fill="#f0e8d0" opacity="0.52"/>
<circle cx="1369.7" cy="117.4" r="1.33" fill="#f0e8d0" opacity="0.86"/>
<circle cx="1208.8" cy="285.7" r="1.16" fill="#f0e8d0" opacity="0.73"/>
<circle cx="1206.6" cy="216.0" r="1.23" fill="#f0e8d0" opacity="0.47"/>
<circle cx="1166.9" cy="193.3" r="0.58" fill="#f0e8d0" opacity="0.4"/>
<circle cx="739.8" cy="97.3" r="0.82" fill="#f0e8d0" opacity="0.67"/>
<circle cx="820.5" cy="53.3" r="0.62" fill="#f0e8d0" opacity="0.45"/>
<circle cx="840.3" cy="162.8" r="0.94" fill="#f0e8d0" opacity="0.42"/>
<circle cx="1213.2" cy="378.5" r="1.45" fill="#f0e8d0" opacity="0.65"/>
<circle cx="390.3" cy="369.0" r="1.48" fill="#f0e8d0" opacity="0.32"/>
<circle cx="254.4" cy="341.3" r="0.81" fill="#f0e8d0" opacity="0.9"/>
<circle cx="176.6" cy="67.7" r="1.1" fill="#f0e8d0" opacity="0.4"/>
<circle cx="1087.8" cy="412.2" r="0.97" fill="#f0e8d0" opacity="0.69"/>
<circle cx="684.0" cy="9.5" r="1.47" fill="#f0e8d0" opacity="0.37"/>
<circle cx="551.2" cy="29.4" r="1.03" fill="#f0e8d0" opacity="0.79"/>
<circle cx="1345.2" cy="117.7" r="1.51" fill="#f0e8d0" opacity="0.61"/>
<circle cx="791.3" cy="377.1" r="0.62" fill="#f0e8d0" opacity="0.46"/>
<circle cx="1249.5" cy="39.6" r="1.16" fill="#f0e8d0" opacity="0.95"/>
<circle cx="1296.9" cy="40.5" r="1.11" fill="#f0e8d0" opacity="0.46"/>
<circle cx="1304.6" cy="80.6" r="1.28" fill="#f0e8d0" opacity="0.79"/>
<circle cx="992.4" cy="74.9" r="0.55" fill="#f0e8d0" opacity="0.42"/>
<circle cx="1011.5" cy="312.6" r="0.72" fill="#f0e8d0" opacity="0.33"/>
<circle cx="297.9" cy="95.6" r="0.42" fill="#f0e8d0" opacity="0.31"/>
<circle cx="649.4" cy="72.4" r="1.41" fill="#f0e8d0" opacity="0.44"/>
<circle cx="858.8" cy="40.7" r="1.03" fill="#f0e8d0" opacity="0.95"/>
<circle cx="338.2" cy="217.7" r="1.5" fill="#f0e8d0" opacity="0.38"/>
<circle cx="766.6" cy="1.4" r="0.8" fill="#f0e8d0" opacity="0.87"/>
<circle cx="222.7" cy="454.8" r="0.78" fill="#f0e8d0" opacity="0.42"/>
<circle cx="305.3" cy="80.7" r="0.82" fill="#f0e8d0" opacity="0.72"/>
<circle cx="241.5" cy="435.0" r="1.19" fill="#f0e8d0" opacity="0.87"/>
<circle cx="170.2" cy="310.6" r="1.68" fill="#f0e8d0" opacity="0.31"/>
<circle cx="669.5" cy="401.6" r="1.47" fill="#f0e8d0" opacity="0.45"/>
<circle cx="648.4" cy="92.6" r="1.5" fill="#f0e8d0" opacity="0.84"/>
<circle cx="479.7" cy="419.4" r="1.52" fill="#f0e8d0" opacity="0.31"/>
<circle cx="178.0" cy="291.3" r="1.61" fill="#f0e8d0" opacity="0.25"/>
<circle cx="214.1" cy="113.4" r="0.7" fill="#f0e8d0" opacity="0.82"/>
<circle cx="156.8" cy="416.7" r="1.49" fill="#f0e8d0" opacity="0.36"/>
<circle cx="181.2" cy="51.0" r="0.86" fill="#f0e8d0" opacity="0.71"/>
<circle cx="962.3" cy="422.8" r="0.6" fill="#f0e8d0" opacity="0.81"/>
<circle cx="462.9" cy="221.6" r="1.03" fill="#f0e8d0" opacity="0.81"/>
<circle cx="526.0" cy="141.2" r="0.94" fill="#f0e8d0" opacity="0.5"/>
<circle cx="491.9" cy="397.0" r="1.6" fill="#f0e8d0" opacity="0.62"/>
<circle cx="1142.4" cy="242.9" r="1.38" fill="#f0e8d0" opacity="0.7"/>
<circle cx="165.6" cy="289.4" r="0.41" fill="#f0e8d0" opacity="0.72"/>
<circle cx="872.2" cy="399.3" r="1.61" fill="#f0e8d0" opacity="0.68"/>
<circle cx="774.0" cy="310.6" r="0.91" fill="#f0e8d0" opacity="0.4"/>
<circle cx="175.5" cy="362.0" r="1.54" fill="#f0e8d0" opacity="0.47"/>
<circle cx="1506.3" cy="207.7" r="1.7" fill="#f0e8d0" opacity="0.38"/>
<circle cx="1542.6" cy="9.0" r="1.58" fill="#f0e8d0" opacity="0.6"/>
<circle cx="1468.2" cy="52.8" r="0.85" fill="#f0e8d0" opacity="0.56"/>
<circle cx="146.0" cy="431.8" r="0.47" fill="#f0e8d0" opacity="0.53"/>
<circle cx="757.6" cy="297.3" r="1.04" fill="#f0e8d0" opacity="0.52"/>
<circle cx="838.6" cy="218.8" r="0.47" fill="#f0e8d0" opacity="0.67"/>
<circle cx="1403.3" cy="129.2" r="0.81" fill="#f0e8d0" opacity="0.28"/>
<circle cx="829.5" cy="224.3" r="1.05" fill="#f0e8d0" opacity="0.33"/>
<circle cx="1318.6" cy="387.7" r="1.65" fill="#f0e8d0" opacity="0.83"/>
<circle cx="891.1" cy="200.5" r="1.17" fill="#f0e8d0" opacity="0.6"/>
<circle cx="52.7" cy="416.6" r="0.73" fill="#f0e8d0" opacity="0.68"/>
<circle cx="485.5" cy="199.6" r="1.57" fill="#f0e8d0" opacity="0.83"/>
<circle cx="844.9" cy="69.6" r="1.43" fill="#f0e8d0" opacity="0.86"/>
<circle cx="813.4" cy="188.4" r="1.53" fill="#f0e8d0" opacity="0.33"/>
<circle cx="1311.6" cy="241.2" r="1.42" fill="#f0e8d0" opacity="0.6"/>
<circle cx="1436.1" cy="57.4" r="0.76" fill="#f0e8d0" opacity="0.8"/>
<circle cx="668.2" cy="251.3" r="1.47" fill="#f0e8d0" opacity="0.85"/>
<circle cx="156.8" cy="400.1" r="1.15" fill="#f0e8d0" opacity="0.77"/>
<circle cx="446.4" cy="343.3" r="1.63" fill="#f0e8d0" opacity="0.36"/>
<circle cx="511.7" cy="319.6" r="0.64" fill="#f0e8d0" opacity="0.45"/>
<circle cx="686.6" cy="363.9" r="1.59" fill="#f0e8d0" opacity="0.4"/>
<circle cx="331.2" cy="119.9" r="1.19" fill="#f0e8d0" opacity="0.53"/>
<circle cx="1055.1" cy="135.8" r="1.68" fill="#f0e8d0" opacity="0.65"/>
<circle cx="106.0" cy="248.3" r="1.24" fill="#f0e8d0" opacity="0.35"/>
<circle cx="568.3" cy="409.6" r="1.63" fill="#f0e8d0" opacity="0.65"/>
<circle cx="1138.3" cy="24.3" r="0.97" fill="#f0e8d0" opacity="0.3"/>
<circle cx="1222.0" cy="332.8" r="0.67" fill="#f0e8d0" opacity="0.66"/>
<circle cx="1586.9" cy="30.6" r="0.88" fill="#f0e8d0" opacity="0.41"/>
<circle cx="551.1" cy="195.3" r="0.58" fill="#f0e8d0" opacity="0.65"/>
<circle cx="1460.8" cy="281.7" r="1.31" fill="#f0e8d0" opacity="0.38"/>
<circle cx="1083.9" cy="207.6" r="1.5" fill="#f0e8d0" opacity="0.91"/>
<circle cx="127.7" cy="139.0" r="0.95" fill="#f0e8d0" opacity="0.51"/>
<circle cx="790.4" cy="268.9" r="0.49" fill="#f0e8d0" opacity="0.74"/>
<circle cx="263.6" cy="336.2" r="0.82" fill="#f0e8d0" opacity="0.5"/>
<circle cx="1444.6" cy="51.6" r="0.95" fill="#f0e8d0" opacity="0.8"/>
<circle cx="903.5" cy="306.7" r="1.31" fill="#f0e8d0" opacity="0.82"/>
<circle cx="736.9" cy="88.5" r="1.11" fill="#f0e8d0" opacity="0.29"/>
<circle cx="256.1" cy="114.8" r="1.58" fill="#f0e8d0" opacity="0.35"/>
<circle cx="152.6" cy="167.1" r="0.47" fill="#f0e8d0" opacity="0.95"/>
<circle cx="531.7" cy="258.3" r="0.45" fill="#f0e8d0" opacity="0.94"/>
<circle cx="1280.0" cy="440.8" r="0.46" fill="#f0e8d0" opacity="0.46"/>
<circle cx="580.0" cy="47.5" r="1.29" fill="#f0e8d0" opacity="0.91"/>
<circle cx="1254.3" cy="101.2" r="1.5" fill="#f0e8d0" opacity="0.93"/>
<circle cx="215.7" cy="116.6" r="0.63" fill="#f0e8d0" opacity="0.8"/>
<circle cx="1480.2" cy="141.2" r="0.95" fill="#f0e8d0" opacity="0.46"/>
<circle cx="829.4" cy="449.2" r="1.11" fill="#f0e8d0" opacity="0.4"/>
<circle cx="762.4" cy="170.2" r="0.98" fill="#f0e8d0" opacity="0.44"/>
<circle cx="836.5" cy="247.8" r="0.72" fill="#f0e8d0" opacity="0.91"/>
<circle cx="741.9" cy="18.1" r="0.56" fill="#f0e8d0" opacity="0.65"/>
<circle cx="1357.4" cy="228.2" r="1.19" fill="#f0e8d0" opacity="0.79"/>
<circle cx="473.0" cy="104.2" r="0.93" fill="#f0e8d0" opacity="0.5"/>
<circle cx="552.1" cy="62.0" r="1.46" fill="#f0e8d0" opacity="0.92"/>
<circle cx="814.5" cy="338.0" r="1.01" fill="#f0e8d0" opacity="0.91"/>
<circle cx="992.2" cy="302.2" r="0.86" fill="#f0e8d0" opacity="0.27"/>
<circle cx="894.8" cy="73.5" r="0.47" fill="#f0e8d0" opacity="0.43"/>
<circle cx="1342.1" cy="341.1" r="0.99" fill="#f0e8d0" opacity="0.33"/>
<circle cx="475.7" cy="121.4" r="0.41" fill="#f0e8d0" opacity="0.7"/>
<circle cx="38.6" cy="327.8" r="1.32" fill="#f0e8d0" opacity="0.34"/>
<circle cx="1008.8" cy="259.5" r="1.44" fill="#f0e8d0" opacity="0.47"/>
<circle cx="412.5" cy="422.7" r="0.47" fill="#f0e8d0" opacity="0.29"/>
<circle cx="544.5" cy="28.8" r="0.47" fill="#f0e8d0" opacity="0.6"/>
<circle cx="442.0" cy="33.7" r="1.38" fill="#f0e8d0" opacity="0.51"/>
<circle cx="435.4" cy="359.9" r="0.74" fill="#f0e8d0" opacity="0.47"/>
<circle cx="1228.9" cy="288.0" r="1.34" fill="#f0e8d0" opacity="0.93"/>
<circle cx="980.6" cy="317.4" r="1.4" fill="#f0e8d0" opacity="0.27"/>
<circle cx="1249.6" cy="176.4" r="1.39" fill="#f0e8d0" opacity="0.64"/>
<circle cx="586.2" cy="450.3" r="1.24" fill="#f0e8d0" opacity="0.25"/>
<circle cx="1554.3" cy="171.8" r="1.26" fill="#f0e8d0" opacity="0.67"/>
<circle cx="192.6" cy="279.0" r="0.41" fill="#f0e8d0" opacity="0.67"/>
<circle cx="1311.1" cy="426.5" r="0.42" fill="#f0e8d0" opacity="0.63"/>
<circle cx="1547.2" cy="79.7" r="1.39" fill="#f0e8d0" opacity="0.38"/>
<circle cx="1369.3" cy="393.1" r="0.87" fill="#f0e8d0" opacity="0.53"/>
<circle cx="367.0" cy="26.6" r="1.17" fill="#f0e8d0" opacity="0.38"/>
<circle cx="1281.7" cy="167.5" r="1.05" fill="#f0e8d0" opacity="0.55"/>
<circle cx="156.7" cy="275.1" r="0.81" fill="#f0e8d0" opacity="0.48"/>
<circle cx="177.1" cy="258.3" r="0.97" fill="#f0e8d0" opacity="0.92"/>
<circle cx="631.3" cy="441.7" r="0.6" fill="#f0e8d0" opacity="0.28"/>
<circle cx="406.1" cy="443.3" r="1.32" fill="#f0e8d0" opacity="0.29"/>
<circle cx="1122.4" cy="413.1" r="0.69" fill="#f0e8d0" opacity="0.86"/>
<circle cx="1323.6" cy="214.8" r="0.42" fill="#f0e8d0" opacity="0.8"/>
<circle cx="84.5" cy="137.6" r="0.86" fill="#f0e8d0" opacity="0.36"/>
<circle cx="44.7" cy="292.4" r="1.09" fill="#f0e8d0" opacity="0.49"/>
<circle cx="379.9" cy="113.8" r="0.77" fill="#f0e8d0" opacity="0.37"/>
<circle cx="881.1" cy="375.7" r="1.18" fill="#f0e8d0" opacity="0.36"/>
<circle cx="469.7" cy="421.4" r="0.92" fill="#f0e8d0" opacity="0.34"/>
<circle cx="1564.4" cy="155.8" r="1.32" fill="#f0e8d0" opacity="0.89"/>
<circle cx="1192.2" cy="115.4" r="0.62" fill="#f0e8d0" opacity="0.81"/>
<circle cx="918.7" cy="139.0" r="1.44" fill="#f0e8d0" opacity="0.29"/>
<circle cx="756.9" cy="117.0" r="1.63" fill="#f0e8d0" opacity="0.77"/>
<circle cx="797.3" cy="41.6" r="0.55" fill="#f0e8d0" opacity="0.32"/>
<circle cx="1320.2" cy="358.1" r="1.67" fill="#f0e8d0" opacity="0.37"/>
<circle cx="1128.0" cy="274.1" r="1.07" fill="#f0e8d0" opacity="0.32"/>
<circle cx="1320" cy="112" r="46" fill="#efe6cf"/>
<circle cx="1320" cy="112" r="46" fill="none" stroke="rgba(232,214,168,0.35)" stroke-width="18" opacity="0.5"/>
<circle cx="1305" cy="100" r="46" fill="#120a12" opacity="0.55"/>
<rect x="-20" y="308" width="103" height="222" fill="#05060c"/>
<rect x="42" y="366" width="6" height="9" fill="#ffd7a0" opacity="0.93"/><rect x="60" y="366" width="6" height="9" fill="#e8c98a" opacity="0.87"/><rect x="42" y="388" width="6" height="9" fill="#f2b98f" opacity="0.94"/><rect x="6" y="410" width="6" height="9" fill="#ffd7a0" opacity="0.86"/><rect x="6" y="432" width="6" height="9" fill="#ffd7a0" opacity="0.8"/><rect x="42" y="476" width="6" height="9" fill="#ffd7a0" opacity="0.55"/>
<rect x="83" y="296" width="63" height="234" fill="#05060c"/>
<rect x="109" y="332" width="6" height="9" fill="#ffd7a0" opacity="0.5"/><rect x="127" y="376" width="6" height="9" fill="#ffd7a0" opacity="0.56"/><rect x="91" y="442" width="6" height="9" fill="#e8c98a" opacity="0.55"/>
<rect x="137" y="270" width="42" height="260" fill="#05060c"/>
<rect x="145" y="284" width="6" height="9" fill="#ffd7a0" opacity="0.68"/><rect x="163" y="438" width="6" height="9" fill="#ffcf8f" opacity="0.82"/>
<rect x="178" y="393" width="119" height="137" fill="#05060c"/>
<rect x="258" y="429" width="6" height="9" fill="#f2b98f" opacity="0.61"/><rect x="258" y="451" width="6" height="9" fill="#ffcf8f" opacity="0.57"/>
<rect x="288" y="371" width="106" height="159" fill="#05060c"/>
<rect x="296" y="385" width="6" height="9" fill="#f2b98f" opacity="0.91"/><rect x="350" y="407" width="6" height="9" fill="#e8c98a" opacity="0.75"/><rect x="296" y="429" width="6" height="9" fill="#ffd7a0" opacity="0.77"/><rect x="314" y="429" width="6" height="9" fill="#e8c98a" opacity="0.94"/><rect x="368" y="429" width="6" height="9" fill="#ffcf8f" opacity="0.85"/><rect x="332" y="473" width="6" height="9" fill="#ffd7a0" opacity="0.93"/><rect x="350" y="473" width="6" height="9" fill="#e8c98a" opacity="0.78"/>
<rect x="386" y="415" width="100" height="115" fill="#05060c"/>
<rect x="430" y="451" width="6" height="9" fill="#e8c98a" opacity="0.93"/><rect x="394" y="473" width="6" height="9" fill="#ffd7a0" opacity="0.91"/>
<rect x="486" y="266" width="48" height="264" fill="#05060c"/>
<rect x="494" y="302" width="6" height="9" fill="#f2b98f" opacity="0.9"/>
<rect x="528" y="307" width="99" height="223" fill="#05060c"/>
<rect x="536" y="321" width="6" height="9" fill="#ffcf8f" opacity="0.73"/><rect x="536" y="343" width="6" height="9" fill="#e8c98a" opacity="0.69"/><rect x="554" y="365" width="6" height="9" fill="#ffd7a0" opacity="0.79"/><rect x="572" y="365" width="6" height="9" fill="#ffd7a0" opacity="0.9"/><rect x="590" y="365" width="6" height="9" fill="#e8c98a" opacity="0.84"/><rect x="608" y="365" width="6" height="9" fill="#f2b98f" opacity="0.82"/><rect x="554" y="431" width="6" height="9" fill="#e8c98a" opacity="0.83"/><rect x="536" y="453" width="6" height="9" fill="#f2b98f" opacity="0.59"/>
<rect x="619" y="286" width="93" height="244" fill="#05060c"/>
<rect x="663" y="300" width="6" height="9" fill="#f2b98f" opacity="0.7"/><rect x="627" y="322" width="6" height="9" fill="#e8c98a" opacity="0.89"/><rect x="645" y="322" width="6" height="9" fill="#e8c98a" opacity="0.64"/><rect x="681" y="322" width="6" height="9" fill="#ffcf8f" opacity="0.59"/><rect x="699" y="322" width="6" height="9" fill="#ffcf8f" opacity="0.57"/><rect x="645" y="366" width="6" height="9" fill="#ffcf8f" opacity="0.71"/><rect x="645" y="410" width="6" height="9" fill="#ffcf8f" opacity="0.78"/><rect x="645" y="454" width="6" height="9" fill="#ffcf8f" opacity="0.84"/><rect x="681" y="454" width="6" height="9" fill="#ffd7a0" opacity="0.65"/><rect x="645" y="476" width="6" height="9" fill="#f2b98f" opacity="0.51"/>
<rect x="702" y="381" width="74" height="149" fill="#05060c"/>
<rect x="746" y="417" width="6" height="9" fill="#f2b98f" opacity="0.89"/><rect x="764" y="439" width="6" height="9" fill="#ffcf8f" opacity="0.53"/><rect x="746" y="461" width="6" height="9" fill="#ffcf8f" opacity="0.63"/>
<rect x="769" y="305" width="58" height="225" fill="#05060c"/>
<rect x="795" y="385" width="6" height="9" fill="#ffd7a0" opacity="0.92"/><rect x="795" y="407" width="6" height="9" fill="#e8c98a" opacity="0.7"/><rect x="813" y="429" width="6" height="9" fill="#ffd7a0" opacity="0.69"/>
<rect x="822" y="387" width="52" height="143" fill="#05060c"/>
<rect x="848" y="401" width="6" height="9" fill="#ffcf8f" opacity="0.58"/><rect x="848" y="423" width="6" height="9" fill="#e8c98a" opacity="0.71"/>
<rect x="870" y="301" width="113" height="229" fill="#05060c"/>
<rect x="950" y="315" width="6" height="9" fill="#ffcf8f" opacity="0.87"/><rect x="968" y="315" width="6" height="9" fill="#ffcf8f" opacity="0.69"/><rect x="968" y="337" width="6" height="9" fill="#ffcf8f" opacity="0.81"/><rect x="932" y="359" width="6" height="9" fill="#ffd7a0" opacity="0.58"/><rect x="950" y="359" width="6" height="9" fill="#f2b98f" opacity="0.72"/><rect x="968" y="381" width="6" height="9" fill="#f2b98f" opacity="0.51"/><rect x="968" y="403" width="6" height="9" fill="#f2b98f" opacity="0.61"/><rect x="950" y="425" width="6" height="9" fill="#ffcf8f" opacity="0.67"/><rect x="932" y="469" width="6" height="9" fill="#f2b98f" opacity="0.66"/><rect x="968" y="469" width="6" height="9" fill="#ffcf8f" opacity="0.55"/>
<rect x="973" y="349" width="85" height="181" fill="#05060c"/>
<rect x="981" y="363" width="6" height="9" fill="#f2b98f" opacity="0.94"/><rect x="981" y="385" width="6" height="9" fill="#e8c98a" opacity="0.94"/><rect x="981" y="407" width="6" height="9" fill="#ffd7a0" opacity="0.93"/><rect x="999" y="429" width="6" height="9" fill="#ffcf8f" opacity="0.64"/><rect x="1035" y="429" width="6" height="9" fill="#e8c98a" opacity="0.94"/><rect x="1035" y="451" width="6" height="9" fill="#ffd7a0" opacity="0.85"/><rect x="981" y="473" width="6" height="9" fill="#e8c98a" opacity="0.58"/>
<rect x="1050" y="320" width="80" height="210" fill="#05060c"/>
<rect x="1058" y="378" width="6" height="9" fill="#e8c98a" opacity="0.89"/><rect x="1076" y="378" width="6" height="9" fill="#f2b98f" opacity="0.95"/><rect x="1094" y="400" width="6" height="9" fill="#f2b98f" opacity="0.8"/><rect x="1058" y="422" width="6" height="9" fill="#f2b98f" opacity="0.75"/><rect x="1076" y="422" width="6" height="9" fill="#ffd7a0" opacity="0.63"/><rect x="1112" y="422" width="6" height="9" fill="#ffcf8f" opacity="0.58"/><rect x="1094" y="466" width="6" height="9" fill="#ffd7a0" opacity="0.55"/>
<rect x="1124" y="417" width="83" height="113" fill="#05060c"/>
<rect x="1168" y="453" width="6" height="9" fill="#ffcf8f" opacity="0.74"/>
<rect x="1197" y="319" width="81" height="211" fill="#05060c"/>
<rect x="1205" y="333" width="6" height="9" fill="#e8c98a" opacity="0.81"/><rect x="1241" y="333" width="6" height="9" fill="#e8c98a" opacity="0.52"/><rect x="1259" y="333" width="6" height="9" fill="#ffcf8f" opacity="0.88"/><rect x="1241" y="355" width="6" height="9" fill="#e8c98a" opacity="0.54"/><rect x="1241" y="399" width="6" height="9" fill="#ffcf8f" opacity="0.83"/><rect x="1205" y="421" width="6" height="9" fill="#e8c98a" opacity="0.86"/><rect x="1205" y="465" width="6" height="9" fill="#ffcf8f" opacity="0.8"/>
<rect x="1273" y="418" width="46" height="112" fill="#05060c"/>
<rect x="1299" y="432" width="6" height="9" fill="#ffd7a0" opacity="0.69"/>
<rect x="1316" y="340" width="54" height="190" fill="#05060c"/>
<rect x="1360" y="420" width="6" height="9" fill="#e8c98a" opacity="0.68"/>
<rect x="1365" y="298" width="52" height="232" fill="#05060c"/>
<rect x="1373" y="334" width="6" height="9" fill="#ffd7a0" opacity="0.53"/><rect x="1391" y="422" width="6" height="9" fill="#ffcf8f" opacity="0.54"/><rect x="1373" y="444" width="6" height="9" fill="#ffcf8f" opacity="0.62"/><rect x="1391" y="444" width="6" height="9" fill="#ffcf8f" opacity="0.51"/><rect x="1391" y="466" width="6" height="9" fill="#ffcf8f" opacity="0.53"/>
<rect x="1411" y="313" width="109" height="217" fill="#05060c"/>
<rect x="1509" y="349" width="6" height="9" fill="#f2b98f" opacity="0.81"/><rect x="1437" y="371" width="6" height="9" fill="#f2b98f" opacity="0.61"/><rect x="1455" y="371" width="6" height="9" fill="#e8c98a" opacity="0.75"/><rect x="1419" y="415" width="6" height="9" fill="#ffd7a0" opacity="0.84"/><rect x="1455" y="415" width="6" height="9" fill="#ffcf8f" opacity="0.85"/><rect x="1473" y="437" width="6" height="9" fill="#ffcf8f" opacity="0.52"/><rect x="1491" y="459" width="6" height="9" fill="#ffd7a0" opacity="0.81"/><rect x="1509" y="459" width="6" height="9" fill="#ffd7a0" opacity="0.89"/>
<rect x="1518" y="406" width="115" height="124" fill="#05060c"/>
<rect x="1544" y="442" width="6" height="9" fill="#e8c98a" opacity="0.85"/>
<rect width="1600" height="560" fill="url(#oxglow)"/>
<rect x="0" y="556" width="1600" height="4" fill="#a22c29"/>
</svg>