<svg xmlns="http://www.w3.org/2000/svg" width="800" height="1200" viewBox="0 0 800 1200" role="img" aria-label="After Midnight — Photobookers Issue 02 cover">
<defs>
<linearGradient id="csky" x1="0" y1="0" x2="0" y2="1">
<stop offset="0" stop-color="#0a0c1a"/><stop offset="0.6" stop-color="#150b12"/><stop offset="1" stop-color="#1c0d11"/>
</linearGradient>
<radialGradient id="cmoon" cx="0.72" cy="0.16" r="0.5">
<stop offset="0" stop-color="rgba(232,214,168,0.45)"/><stop offset="0.4" stop-color="rgba(232,214,168,0.08)"/><stop offset="0.7" stop-color="rgba(232,214,168,0)"/>
</radialGradient>
</defs>
<rect width="800" height="1200" fill="url(#csky)"/>
<rect width="800" height="1200" fill="url(#cmoon)"/>
<circle cx="4.5" cy="637.5" r="1.0" fill="#f0e8d0" opacity="0.86"/>
<circle cx="507.9" cy="118.3" r="1.19" fill="#f0e8d0" opacity="0.59"/>
<circle cx="781.4" cy="243.7" r="1.63" fill="#f0e8d0" opacity="0.84"/>
<circle cx="352.4" cy="605.7" r="0.53" fill="#f0e8d0" opacity="0.29"/>
<circle cx="184.9" cy="765.5" r="1.41" fill="#f0e8d0" opacity="0.76"/>
<circle cx="121.8" cy="418.4" r="0.73" fill="#f0e8d0" opacity="0.37"/>
<circle cx="359.0" cy="100.2" r="0.71" fill="#f0e8d0" opacity="0.75"/>
<circle cx="327.8" cy="441.4" r="1.21" fill="#f0e8d0" opacity="0.54"/>
<circle cx="594.6" cy="495.4" r="1.41" fill="#f0e8d0" opacity="0.88"/>
<circle cx="271.6" cy="949.7" r="1.07" fill="#f0e8d0" opacity="0.95"/>
<circle cx="159.4" cy="345.3" r="0.8" fill="#f0e8d0" opacity="0.33"/>
<circle cx="235.1" cy="855.8" r="0.64" fill="#f0e8d0" opacity="0.36"/>
<circle cx="546.6" cy="197.5" r="0.41" fill="#f0e8d0" opacity="0.89"/>
<circle cx="760.1" cy="656.4" r="0.59" fill="#f0e8d0" opacity="0.46"/>
<circle cx="2.0" cy="885.6" r="0.47" fill="#f0e8d0" opacity="0.48"/>
<circle cx="376.4" cy="1018.4" r="1.7" fill="#f0e8d0" opacity="0.7"/>
<circle cx="725.3" cy="922.6" r="1.36" fill="#f0e8d0" opacity="0.61"/>
<circle cx="58.6" cy="447.9" r="1.4" fill="#f0e8d0" opacity="0.28"/>
<circle cx="770.6" cy="638.2" r="1.16" fill="#f0e8d0" opacity="0.39"/>
<circle cx="139.7" cy="1020.2" r="1.56" fill="#f0e8d0" opacity="0.77"/>
<circle cx="199.1" cy="298.7" r="0.49" fill="#f0e8d0" opacity="0.81"/>
<circle cx="637.4" cy="383.1" r="0.97" fill="#f0e8d0" opacity="0.38"/>
<circle cx="525.4" cy="258.0" r="1.21" fill="#f0e8d0" opacity="0.76"/>
<circle cx="385.8" cy="1024.3" r="1.36" fill="#f0e8d0" opacity="0.7"/>
<circle cx="223.9" cy="1019.2" r="1.56" fill="#f0e8d0" opacity="0.43"/>
<circle cx="309.7" cy="305.1" r="0.45" fill="#f0e8d0" opacity="0.89"/>
<circle cx="699.2" cy="606.3" r="1.54" fill="#f0e8d0" opacity="0.62"/>
<circle cx="674.3" cy="202.9" r="0.59" fill="#f0e8d0" opacity="0.95"/>
<circle cx="275.4" cy="659.4" r="0.49" fill="#f0e8d0" opacity="0.57"/>
<circle cx="576.4" cy="1012.9" r="0.45" fill="#f0e8d0" opacity="0.36"/>
<circle cx="675.8" cy="417.0" r="1.07" fill="#f0e8d0" opacity="0.76"/>
<circle cx="482.9" cy="584.7" r="1.02" fill="#f0e8d0" opacity="0.41"/>
<circle cx="170.2" cy="1037.1" r="1.07" fill="#f0e8d0" opacity="0.76"/>
<circle cx="773.6" cy="13.3" r="0.76" fill="#f0e8d0" opacity="0.37"/>
<circle cx="447.0" cy="699.1" r="0.6" fill="#f0e8d0" opacity="0.56"/>
<circle cx="200.9" cy="937.2" r="1.44" fill="#f0e8d0" opacity="0.63"/>
<circle cx="569.6" cy="327.8" r="0.45" fill="#f0e8d0" opacity="0.87"/>
<circle cx="533.0" cy="418.6" r="1.17" fill="#f0e8d0" opacity="0.79"/>
<circle cx="476.1" cy="284.4" r="1.7" fill="#f0e8d0" opacity="0.72"/>
<circle cx="418.6" cy="502.1" r="0.48" fill="#f0e8d0" opacity="0.9"/>
<circle cx="231.5" cy="99.7" r="0.57" fill="#f0e8d0" opacity="0.5"/>
<circle cx="477.5" cy="200.4" r="0.65" fill="#f0e8d0" opacity="0.92"/>
<circle cx="396.8" cy="118.9" r="1.09" fill="#f0e8d0" opacity="0.59"/>
<circle cx="204.5" cy="864.2" r="0.47" fill="#f0e8d0" opacity="0.48"/>
<circle cx="84.9" cy="530.2" r="1.24" fill="#f0e8d0" opacity="0.83"/>
<circle cx="325.5" cy="338.4" r="0.93" fill="#f0e8d0" opacity="0.66"/>
<circle cx="202.7" cy="1031.8" r="0.74" fill="#f0e8d0" opacity="0.51"/>
<circle cx="463.6" cy="10.1" r="1.29" fill="#f0e8d0" opacity="0.41"/>
<circle cx="795.0" cy="913.2" r="0.9" fill="#f0e8d0" opacity="0.94"/>
<circle cx="664.0" cy="458.8" r="0.53" fill="#f0e8d0" opacity="0.48"/>
<circle cx="623.7" cy="1028.9" r="0.85" fill="#f0e8d0" opacity="0.55"/>
<circle cx="240.5" cy="25.0" r="1.65" fill="#f0e8d0" opacity="0.76"/>
<circle cx="297.7" cy="171.9" r="1.65" fill="#f0e8d0" opacity="0.33"/>
<circle cx="110.8" cy="478.5" r="0.95" fill="#f0e8d0" opacity="0.82"/>
<circle cx="235.0" cy="76.2" r="1.01" fill="#f0e8d0" opacity="0.47"/>
<circle cx="508.5" cy="102.3" r="1.45" fill="#f0e8d0" opacity="0.34"/>
<circle cx="109.4" cy="279.3" r="1.13" fill="#f0e8d0" opacity="0.28"/>
<circle cx="527.2" cy="136.5" r="0.97" fill="#f0e8d0" opacity="0.74"/>
<circle cx="367.2" cy="625.2" r="1.09" fill="#f0e8d0" opacity="0.9"/>
<circle cx="311.7" cy="721.8" r="0.89" fill="#f0e8d0" opacity="0.51"/>
<circle cx="69.5" cy="1005.2" r="1.17" fill="#f0e8d0" opacity="0.68"/>
<circle cx="591.8" cy="921.6" r="0.52" fill="#f0e8d0" opacity="0.88"/>
<circle cx="504.2" cy="932.0" r="0.95" fill="#f0e8d0" opacity="0.92"/>
<circle cx="629.0" cy="879.0" r="0.63" fill="#f0e8d0" opacity="0.62"/>
<circle cx="675.6" cy="583.3" r="1.59" fill="#f0e8d0" opacity="0.45"/>
<circle cx="732.4" cy="515.2" r="1.4" fill="#f0e8d0" opacity="0.9"/>
<circle cx="276.0" cy="696.0" r="1.14" fill="#f0e8d0" opacity="0.77"/>
<circle cx="355.0" cy="957.9" r="0.96" fill="#f0e8d0" opacity="0.66"/>
<circle cx="370.5" cy="792.1" r="0.51" fill="#f0e8d0" opacity="0.34"/>
<circle cx="593.3" cy="601.9" r="0.67" fill="#f0e8d0" opacity="0.9"/>
<circle cx="764.0" cy="797.6" r="1.61" fill="#f0e8d0" opacity="0.37"/>
<circle cx="687.8" cy="728.5" r="1.33" fill="#f0e8d0" opacity="0.33"/>
<circle cx="625.3" cy="285.8" r="1.18" fill="#f0e8d0" opacity="0.53"/>
<circle cx="336.0" cy="493.8" r="0.62" fill="#f0e8d0" opacity="0.52"/>
<circle cx="20.6" cy="987.4" r="1.01" fill="#f0e8d0" opacity="0.45"/>
<circle cx="543.8" cy="554.1" r="0.95" fill="#f0e8d0" opacity="0.53"/>
<circle cx="647.5" cy="673.9" r="0.76" fill="#f0e8d0" opacity="0.45"/>
<circle cx="227.4" cy="778.3" r="0.67" fill="#f0e8d0" opacity="0.69"/>
<circle cx="611.8" cy="447.4" r="1.48" fill="#f0e8d0" opacity="0.44"/>
<circle cx="118.1" cy="371.5" r="1.63" fill="#f0e8d0" opacity="0.83"/>
<circle cx="135.9" cy="83.5" r="1.15" fill="#f0e8d0" opacity="0.84"/>
<circle cx="765.3" cy="527.7" r="0.95" fill="#f0e8d0" opacity="0.36"/>
<circle cx="482.1" cy="80.9" r="0.96" fill="#f0e8d0" opacity="0.68"/>
<circle cx="97.2" cy="266.2" r="1.46" fill="#f0e8d0" opacity="0.62"/>
<circle cx="597.4" cy="347.9" r="1.46" fill="#f0e8d0" opacity="0.51"/>
<circle cx="19.9" cy="453.4" r="1.02" fill="#f0e8d0" opacity="0.38"/>
<circle cx="100.1" cy="379.9" r="1.59" fill="#f0e8d0" opacity="0.91"/>
<circle cx="590.5" cy="709.1" r="1.02" fill="#f0e8d0" opacity="0.45"/>
<circle cx="562.4" cy="429.0" r="0.5" fill="#f0e8d0" opacity="0.55"/>
<circle cx="320.9" cy="503.0" r="1.41" fill="#f0e8d0" opacity="0.94"/>
<circle cx="29.2" cy="118.5" r="0.69" fill="#f0e8d0" opacity="0.44"/>
<circle cx="7.6" cy="696.2" r="0.45" fill="#f0e8d0" opacity="0.26"/>
<circle cx="29.6" cy="67.3" r="0.54" fill="#f0e8d0" opacity="0.73"/>
<circle cx="687.9" cy="579.5" r="1.19" fill="#f0e8d0" opacity="0.35"/>
<circle cx="630.9" cy="491.9" r="1.16" fill="#f0e8d0" opacity="0.31"/>
<circle cx="660.8" cy="623.6" r="0.82" fill="#f0e8d0" opacity="0.3"/>
<circle cx="132.6" cy="920.0" r="0.92" fill="#f0e8d0" opacity="0.44"/>
<circle cx="441.2" cy="918.4" r="1.51" fill="#f0e8d0" opacity="0.87"/>
<circle cx="53.9" cy="492.0" r="0.87" fill="#f0e8d0" opacity="0.83"/>
<circle cx="770.6" cy="172.8" r="1.01" fill="#f0e8d0" opacity="0.68"/>
<circle cx="470.6" cy="458.8" r="0.65" fill="#f0e8d0" opacity="0.32"/>
<circle cx="762.9" cy="184.4" r="0.64" fill="#f0e8d0" opacity="0.57"/>
<circle cx="306.9" cy="877.9" r="1.17" fill="#f0e8d0" opacity="0.54"/>
<circle cx="328.2" cy="821.2" r="1.67" fill="#f0e8d0" opacity="0.63"/>
<circle cx="332.4" cy="589.7" r="1.02" fill="#f0e8d0" opacity="0.75"/>
<circle cx="755.4" cy="864.3" r="1.7" fill="#f0e8d0" opacity="0.31"/>
<circle cx="124.7" cy="269.5" r="0.93" fill="#f0e8d0" opacity="0.54"/>
<circle cx="41.6" cy="369.8" r="0.86" fill="#f0e8d0" opacity="0.39"/>
<circle cx="321.3" cy="248.0" r="1.54" fill="#f0e8d0" opacity="0.65"/>
<circle cx="756.3" cy="789.0" r="1.48" fill="#f0e8d0" opacity="0.29"/>
<circle cx="424.6" cy="830.0" r="1.15" fill="#f0e8d0" opacity="0.85"/>
<circle cx="90.7" cy="1012.2" r="1.58" fill="#f0e8d0" opacity="0.34"/>
<circle cx="91.3" cy="752.1" r="0.74" fill="#f0e8d0" opacity="0.9"/>
<circle cx="397.1" cy="929.8" r="1.65" fill="#f0e8d0" opacity="0.86"/>
<circle cx="798.9" cy="568.2" r="0.74" fill="#f0e8d0" opacity="0.42"/>
<circle cx="608.8" cy="545.2" r="1.33" fill="#f0e8d0" opacity="0.48"/>
<circle cx="508.6" cy="374.2" r="0.86" fill="#f0e8d0" opacity="0.79"/>
<circle cx="443.3" cy="525.9" r="1.04" fill="#f0e8d0" opacity="0.44"/>
<circle cx="341.4" cy="862.2" r="0.92" fill="#f0e8d0" opacity="0.94"/>
<circle cx="447.9" cy="533.7" r="1.52" fill="#f0e8d0" opacity="0.82"/>
<circle cx="481.0" cy="357.7" r="1.16" fill="#f0e8d0" opacity="0.61"/>
<circle cx="784.7" cy="732.7" r="1.26" fill="#f0e8d0" opacity="0.66"/>
<circle cx="114.9" cy="459.1" r="0.6" fill="#f0e8d0" opacity="0.93"/>
<circle cx="679.2" cy="991.8" r="0.79" fill="#f0e8d0" opacity="0.58"/>
<circle cx="104.7" cy="590.7" r="1.4" fill="#f0e8d0" opacity="0.34"/>
<circle cx="522.8" cy="100.4" r="1.09" fill="#f0e8d0" opacity="0.61"/>
<circle cx="680.4" cy="301.1" r="1.19" fill="#f0e8d0" opacity="0.95"/>
<circle cx="496.1" cy="115.8" r="0.61" fill="#f0e8d0" opacity="0.3"/>
<circle cx="291.8" cy="193.8" r="1.42" fill="#f0e8d0" opacity="0.58"/>
<circle cx="557.4" cy="1042.4" r="1.53" fill="#f0e8d0" opacity="0.48"/>
<circle cx="627.2" cy="825.7" r="1.28" fill="#f0e8d0" opacity="0.74"/>
<circle cx="487.6" cy="553.6" r="1.23" fill="#f0e8d0" opacity="0.78"/>
<circle cx="358.4" cy="811.6" r="1.13" fill="#f0e8d0" opacity="0.32"/>
<circle cx="268.2" cy="600.6" r="1.08" fill="#f0e8d0" opacity="0.94"/>
<circle cx="283.2" cy="345.4" r="1.69" fill="#f0e8d0" opacity="0.33"/>
<circle cx="669.6" cy="106.5" r="0.54" fill="#f0e8d0" opacity="0.63"/>
<circle cx="628.5" cy="3.8" r="0.73" fill="#f0e8d0" opacity="0.64"/>
<circle cx="475.9" cy="496.8" r="0.64" fill="#f0e8d0" opacity="0.58"/>
<circle cx="533.5" cy="283.7" r="1.08" fill="#f0e8d0" opacity="0.51"/>
<circle cx="486.4" cy="866.3" r="0.51" fill="#f0e8d0" opacity="0.92"/>
<circle cx="602.5" cy="836.5" r="0.96" fill="#f0e8d0" opacity="0.82"/>
<circle cx="548.9" cy="359.8" r="1.18" fill="#f0e8d0" opacity="0.44"/>
<circle cx="47.6" cy="790.2" r="1.0" fill="#f0e8d0" opacity="0.72"/>
<circle cx="114.4" cy="641.0" r="0.41" fill="#f0e8d0" opacity="0.37"/>
<circle cx="699.0" cy="112.8" r="1.07" fill="#f0e8d0" opacity="0.49"/>
<circle cx="732.4" cy="412.0" r="0.63" fill="#f0e8d0" opacity="0.85"/>
<circle cx="255.2" cy="166.4" r="1.5" fill="#f0e8d0" opacity="0.64"/>
<circle cx="280.3" cy="558.1" r="0.81" fill="#f0e8d0" opacity="0.83"/>
<circle cx="723.5" cy="626.3" r="1.2" fill="#f0e8d0" opacity="0.77"/>
<circle cx="621.3" cy="837.2" r="1.19" fill="#f0e8d0" opacity="0.57"/>
<circle cx="560" cy="150" r="52" fill="#efe6cf"/>
<circle cx="544" cy="138" r="52" fill="#150b12" opacity="0.5"/>
<rect x="-20" y="976" width="56" height="144" fill="#05060c"/>
<rect x="6" y="1012" width="6" height="9" fill="#ffcf8f" opacity="0.5"/><rect x="24" y="1012" width="6" height="9" fill="#e8c98a" opacity="0.89"/>
<rect x="31" y="941" width="59" height="179" fill="#05060c"/>
<rect x="75" y="955" width="6" height="9" fill="#ffcf8f" opacity="0.77"/><rect x="57" y="977" width="6" height="9" fill="#e8c98a" opacity="0.51"/><rect x="57" y="999" width="6" height="9" fill="#ffcf8f" opacity="0.67"/><rect x="39" y="1065" width="6" height="9" fill="#e8c98a" opacity="0.76"/>
<rect x="89" y="950" width="100" height="170" fill="#05060c"/>
<rect x="169" y="986" width="6" height="9" fill="#ffcf8f" opacity="0.82"/><rect x="97" y="1008" width="6" height="9" fill="#e8c98a" opacity="0.73"/>
<rect x="180" y="956" width="88" height="164" fill="#05060c"/>
<rect x="206" y="970" width="6" height="9" fill="#ffcf8f" opacity="0.95"/><rect x="224" y="992" width="6" height="9" fill="#ffd7a0" opacity="0.61"/><rect x="206" y="1036" width="6" height="9" fill="#e8c98a" opacity="0.61"/><rect x="206" y="1058" width="6" height="9" fill="#ffcf8f" opacity="0.77"/>
<rect x="266" y="922" width="94" height="198" fill="#05060c"/>
<rect x="274" y="980" width="6" height="9" fill="#ffd7a0" opacity="0.58"/><rect x="310" y="980" width="6" height="9" fill="#ffcf8f" opacity="0.83"/><rect x="328" y="980" width="6" height="9" fill="#ffcf8f" opacity="0.77"/><rect x="274" y="1002" width="6" height="9" fill="#ffd7a0" opacity="0.87"/><rect x="310" y="1002" width="6" height="9" fill="#f2b98f" opacity="0.67"/><rect x="292" y="1024" width="6" height="9" fill="#ffcf8f" opacity="0.71"/><rect x="328" y="1024" width="6" height="9" fill="#f2b98f" opacity="0.63"/><rect x="346" y="1024" width="6" height="9" fill="#e8c98a" opacity="0.79"/><rect x="274" y="1046" width="6" height="9" fill="#e8c98a" opacity="0.51"/><rect x="292" y="1068" width="6" height="9" fill="#f2b98f" opacity="0.61"/>
<rect x="352" y="1005" width="104" height="115" fill="#05060c"/>
<rect x="396" y="1019" width="6" height="9" fill="#ffd7a0" opacity="0.88"/><rect x="396" y="1063" width="6" height="9" fill="#ffcf8f" opacity="0.77"/>
<rect x="452" y="890" width="52" height="230" fill="#05060c"/>
<rect x="478" y="926" width="6" height="9" fill="#e8c98a" opacity="0.66"/><rect x="460" y="1036" width="6" height="9" fill="#ffd7a0" opacity="0.61"/>
<rect x="498" y="856" width="119" height="264" fill="#05060c"/>
<rect x="578" y="870" width="6" height="9" fill="#f2b98f" opacity="0.92"/><rect x="524" y="892" width="6" height="9" fill="#e8c98a" opacity="0.9"/><rect x="596" y="892" width="6" height="9" fill="#f2b98f" opacity="0.84"/><rect x="542" y="914" width="6" height="9" fill="#ffcf8f" opacity="0.76"/><rect x="560" y="914" width="6" height="9" fill="#e8c98a" opacity="0.54"/><rect x="578" y="936" width="6" height="9" fill="#ffcf8f" opacity="0.81"/><rect x="596" y="936" width="6" height="9" fill="#e8c98a" opacity="0.77"/><rect x="542" y="958" width="6" height="9" fill="#e8c98a" opacity="0.88"/><rect x="560" y="958" width="6" height="9" fill="#ffcf8f" opacity="0.71"/><rect x="542" y="980" width="6" height="9" fill="#e8c98a" opacity="0.68"/><rect x="560" y="980" width="6" height="9" fill="#e8c98a" opacity="0.58"/><rect x="560" y="1002" width="6" height="9" fill="#ffcf8f" opacity="0.58"/><rect x="542" y="1024" width="6" height="9" fill="#ffcf8f" opacity="0.81"/><rect x="596" y="1024" width="6" height="9" fill="#ffd7a0" opacity="0.9"/><rect x="524" y="1068" width="6" height="9" fill="#ffcf8f" opacity="0.62"/>
<rect x="614" y="985" width="45" height="135" fill="#05060c"/>
<rect x="640" y="999" width="6" height="9" fill="#f2b98f" opacity="0.91"/>
<rect x="651" y="871" width="38" height="249" fill="#05060c"/>
<rect x="659" y="885" width="6" height="9" fill="#ffd7a0" opacity="0.71"/><rect x="659" y="907" width="6" height="9" fill="#ffcf8f" opacity="0.55"/><rect x="659" y="1061" width="6" height="9" fill="#ffcf8f" opacity="0.77"/>
<rect x="685" y="930" width="94" height="190" fill="#05060c"/>
<rect x="711" y="944" width="6" height="9" fill="#e8c98a" opacity="0.61"/><rect x="729" y="966" width="6" height="9" fill="#ffcf8f" opacity="0.57"/><rect x="747" y="1010" width="6" height="9" fill="#f2b98f" opacity="0.76"/><rect x="729" y="1054" width="6" height="9" fill="#e8c98a" opacity="0.78"/><rect x="747" y="1054" width="6" height="9" fill="#ffcf8f" opacity="0.71"/><rect x="765" y="1054" width="6" height="9" fill="#f2b98f" opacity="0.53"/>
<rect x="772" y="1003" width="112" height="117" fill="#05060c"/>
<rect x="816" y="1017" width="6" height="9" fill="#ffcf8f" opacity="0.54"/><rect x="834" y="1017" width="6" height="9" fill="#f2b98f" opacity="0.54"/><rect x="834" y="1061" width="6" height="9" fill="#ffd7a0" opacity="0.86"/>
<rect x="0" y="0" width="800" height="1200" fill="none" stroke="#000" stroke-opacity="0.0"/>
<text x="64" y="150" font-family="Georgia, 'Times New Roman', serif" font-size="26" letter-spacing="6" fill="#e8d6a8" opacity="0.85">PHOTOBOOKERS · ISSUE 02</text>
<text x="60" y="1010" font-family="Georgia, 'Times New Roman', serif" font-weight="600" font-size="118" fill="#fbf7ee">After</text>
<text x="60" y="1130" font-family="Georgia, 'Times New Roman', serif" font-weight="600" font-style="italic" font-size="118" fill="#e6b9a0">Midnight</text>
<rect x="0" y="1194" width="800" height="6" fill="#a22c29"/>
</svg>